<?xml version="1.0" encoding="UTF-8"?> <svg xmlns="http://www.w3.org/2000/svg" xmlns:xlink="http://www.w3.org/1999/xlink" width="300px" height="300px" viewBox="0 0 300 300"><!-- Generator: Sketch 48.1 (47250) - http://www.bohemiancoding.com/sketch --><title>design</title><desc>Created with Sketch.</desc><defs><linearGradient x1="37092%" y1="31059%" x2="40138%" y2="31059%" id="linearGradient-1"><stop stop-color="#F0DCCE" offset="0%"></stop><stop stop-color="#EFD4D1" offset="42%"></stop><stop stop-color="#F2EAC9" offset="100%"></stop></linearGradient><linearGradient x1="50.002871%" y1="99.9926151%" x2="50.002871%" y2="-3.93623414e-14%" id="linearGradient-2"><stop stop-color="#808080" stop-opacity="0.25" offset="0%"></stop><stop stop-color="#808080" stop-opacity="0.12" offset="54%"></stop><stop stop-color="#808080" stop-opacity="0.1" offset="100%"></stop></linearGradient><linearGradient x1="50551%" y1="13632%" x2="50551%" y2="11273%" id="linearGradient-3"><stop stop-color="#808080" stop-opacity="0.25" offset="0%"></stop><stop stop-color="#808080" stop-opacity="0.12" offset="54%"></stop><stop stop-color="#808080" stop-opacity="0.1" offset="100%"></stop></linearGradient></defs><g id="Page-1" stroke="none" stroke-width="1" fill="none" fill-rule="evenodd"><g id="design" fill-rule="nonzero"><path d="M101.088578,27.3739766 C95.0090821,42.519454 93.7244075,59.7134329 85.3286049,73.6163767 C72.5921594,94.7125828 47.1517095,102.86629 28.5628575,118.616243 C10.0843059,134.2856 -1.65294835,158.995228 0.189716215,183.651125 C2.03238078,208.307022 18.5644558,231.787549 41.4615095,238.826335 C49.3966459,241.271103 58.006561,241.882296 65.1501303,246.214372 C81.0787976,255.872553 83.4859403,279.61502 97.7471259,291.744834 C110.503036,302.591817 129.254095,301.248538 145.033532,296.251537 C160.812969,291.254537 175.976023,283.141129 192.449703,282.11352 C202.272922,281.502327 212.154535,283.456799 221.938825,282.402325 C234.409252,281.059045 245.867511,274.920257 256.832663,268.620276 C275.901646,257.659115 296.411021,243.003934 299.583778,220.665194 C303.217201,194.927957 281.857864,171.588474 282.195253,145.575865 C282.350971,133.486348 287.256093,121.846831 287.710271,109.737165 C288.359096,93.0334833 279.71674,76.2895031 265.974615,67.5178874 C254.730468,60.3313415 241.027272,58.4776157 229.277041,52.2246491 C213.348374,43.7485549 202.389711,28.0456164 188.874674,15.9023688 C164.420439,-6.06696905 115.258928,-7.95427689 101.088578,27.3739766 Z" id="Shape" fill="#B9E77E" opacity="0.18"></path><g id="Group-4" transform="translate(66.013514, 71.959459)"><circle id="Oval" fill="url(#linearGradient-1)" cx="58.7935425" cy="26.5151307" r="15.8969664"></circle><rect id="Rectangle-path" fill="#1D5E17" x="60.3075393" y="127.337224" width="11.3877793" height="50.9409458" rx="5.69388964"></rect><path d="M47.9432321,120.557042 L84.0671958,120.557042 C86.7847072,120.557042 88.9876854,122.76002 88.9876854,125.477532 L88.9876854,133.673301 C88.9876854,133.91718 88.7899822,134.114883 88.546103,134.114883 L43.4567549,134.114883 C43.2128757,134.114883 43.0151725,133.91718 43.0151725,133.673301 L43.0151725,125.477532 C43.015171,124.171224 43.5346172,122.91853 44.4590259,121.995541 C45.3834346,121.072552 46.636926,120.555032 47.9432321,120.557042 Z" id="Shape" fill="#B9E77E"></path><rect id="Rectangle-path" fill="#1D5E17" x="50.1839474" y="173.627677" width="33.1085868" height="4.64797018" rx="2.32398509"></rect><path d="M94.9452628,56.7723568 C95.2758188,54.3095886 96.27001,51.8594372 97.6073739,50.211704 C98.9447377,48.5639708 100.607611,47.7363192 102.061048,47.9987453 C102.462751,48.0550137 102.830834,48.2538323 103.098136,48.5589241 C103.431753,49.0082557 103.58318,49.5670936 103.522055,50.1233875 C102.255531,50.4863065 101.031477,50.9837104 99.8707991,51.6071044 C98.9911241,52.0471281 98.1884296,52.6265679 97.4938241,53.3229674 C96.6536114,54.2073104 96.0360303,55.2789953 95.6921679,56.4493708 C95.5451131,57.1064998 95.3623208,57.7551177 95.1446057,58.3923334 C94.9629261,58.8313924 94.5819036,59.4016646 94.2765809,59.3183947 C94.3524132,58.9820756 94.4658349,58.6553535 94.6147069,58.3443901 C94.7756206,57.8323411 94.8863276,57.3058492 94.9452628,56.7723568 Z" id="Shape" fill="#FBD3AF"></path><path d="M139.007616,170.344827 C139.007616,171.119489 139.007616,171.921907 139.343219,172.636009 C139.590038,173.10654 139.899901,173.541196 140.264234,173.927953 L143.875116,178.121724 C144.528437,178.909064 145.257847,179.630023 146.052748,180.274123 C146.480901,180.602871 146.666762,181.158526 146.522572,181.678718 C146.378383,182.19891 145.932983,182.579588 145.396683,182.641004 C142.40413,182.976125 139.374879,182.585784 136.565035,181.502983 C134.778519,180.801498 133.135832,179.827494 131.389689,179.050309 C129.371027,178.146957 126.847699,177.094729 126.688729,175.030647 C126.532283,173.011985 128.765428,171.644341 130.044755,169.999131 C131.727815,167.839162 131.811085,164.992848 131.833795,162.335784 C132.023045,148.485236 133.052562,134.654876 134.08208,120.834608 C134.155257,119.875744 134.238527,118.873982 134.781042,118.058947 C136.226909,115.868699 141.8615,115.235343 141.995237,118.44754 C142.159253,122.419258 141.124689,126.708916 140.778993,130.680634 C140.043863,139.091727 139.539198,147.511232 139.264996,155.939147 C139.103503,160.738517 139.01771,165.54041 139.007616,170.344827 Z" id="Shape" fill="url(#linearGradient-1)"></path><path d="M129.678873,118.596416 C131.240813,118.53081 132.825463,118.465203 134.3546,118.778096 C135.883736,119.090989 137.382593,119.830324 138.195105,121.049091 C139.007616,122.267858 139.012663,124.014001 137.920062,125.040996 L110.736249,124.965296 C109.239916,124.965296 107.708256,124.965296 106.292669,124.5439 C104.168027,123.933255 101.647222,121.65469 103.130939,119.441731 C104.22354,117.814185 106.915931,118.52324 108.619177,118.646883 C115.626459,119.161642 122.666544,118.889122 129.678873,118.596416 Z" id="Shape" fill="#FBD3AF"></path><path d="M137.955389,106.307809 C141.001046,106.275006 144.546321,106.464255 146.302558,108.747867 C147.531418,110.35018 147.433009,112.565662 146.595264,114.367318 C145.757519,116.168975 144.286419,117.647645 142.843075,119.093512 L107.640126,154.291414 C103.602801,158.328739 99.3131436,162.956523 99.4367867,168.437191 C99.4670666,169.779601 99.8808924,171.263318 101.119846,171.96985 C102.358801,172.676382 104.354753,172.600682 104.869512,173.869916 C105.189975,174.664764 104.634842,175.575686 103.860181,176.019792 C103.085519,176.463897 102.116561,176.552214 101.19807,176.627914 C99.3106203,176.789407 97.3752277,176.945853 95.5432916,176.491654 C93.7113554,176.037455 91.9778291,174.843921 91.5211067,173.153291 C90.784295,170.425573 93.3959394,167.137677 91.4555002,164.965092 C90.6177553,164.026414 89.169365,163.703428 88.3164802,162.774843 C86.9967796,161.336546 87.6780782,159.030224 89.1214218,157.697907 C90.5647654,156.36559 92.5556712,155.696908 94.3522808,154.79608 C98.7302548,152.603308 102.025721,148.992425 105.202591,145.459766 L130.307181,117.703158 L103.812237,117.243912 C102.918979,117.228772 101.990395,117.203539 101.19807,116.82504 C99.43174,115.977202 99.0961374,113.797046 99.3156669,111.97268 C99.5351965,110.148314 100.072665,108.235631 99.2803403,106.562665 C99.108754,106.199306 106.696401,106.643411 107.387793,106.635841 L117.576992,106.522292 L137.955389,106.307809 Z" id="Shape" fill="url(#linearGradient-1)"></path><path d="M39.3563469,107.503866 C38.5438353,112.623699 40.5927776,118.389503 45.1095347,120.933018 C48.0567819,122.590844 51.5869177,122.732151 54.9681773,122.830561 L64.6754201,123.11822 C70.5270177,123.289806 76.391232,123.461393 82.2327363,123.055137 C83.968786,122.934017 85.707359,122.762431 87.4484553,122.802804 C93.8930351,122.931494 99.931359,125.871171 105.512961,129.111124 C106.99969,126.96726 108.195256,124.635526 109.06833,122.177019 C110.882603,117.203539 111.377175,111.049142 107.806666,107.140507 C105.467541,104.584376 101.874322,103.572521 98.4224088,103.272245 C91.1981207,102.648983 83.3985139,104.533909 77.0018774,101.127416 C75.8916131,100.534434 74.8646186,99.7976226 73.8048208,99.108754 C67.4965008,95.0714292 60.7238884,88.846379 53.2422209,89.353568 C49.4572289,89.6059008 46.7951178,94.539007 44.3474897,97.4282176 C41.8998615,100.317428 39.9594223,103.718874 39.3563469,107.503866 Z" id="Shape" fill="#E12F13"></path><path d="M59.9113768,38.3444924 C60.8702415,39.5657831 61.8543394,40.8324938 62.4019016,42.4928436 C63.1589,44.8067354 62.5356379,48.7078005 62.3085384,51.2437451 C59.6338107,49.712085 57.3779555,46.9767975 54.7032278,45.4400907 C54.2591221,45.1877579 53.7822131,44.8925285 53.5298803,44.3121631 C53.2952108,43.7696476 53.3053041,43.0908723 53.3204441,42.4549937 C53.365864,40.7946439 52.8990483,31.9907524 53.9790327,31.3346872 C54.9025707,30.7846017 59.1114818,37.3023579 59.9113768,38.3444924 Z" id="Shape" fill="#FBD3AF"></path><path d="M42.0335979,56.2475046 C41.1832364,59.1165285 41.9452814,62.2202219 43.080779,64.9883128 C44.2162766,67.7564036 45.7353201,70.3882347 46.4771785,73.2875386 C47.8801489,78.783347 46.3636288,84.5567214 44.8521553,90.0247732 L42.3692005,99.0179142 C45.5183139,98.4653054 48.8869568,97.9354065 51.8140172,99.2172571 C52.6568088,99.585663 53.4440871,100.100422 54.3373453,100.322475 C56.6613303,100.900317 58.9373722,99.4014601 61.2764973,98.8892245 C66.121287,97.8319501 71.6852253,100.965923 75.8966597,98.3441857 C75.1050218,94.443957 74.0297505,90.6067142 72.6794165,86.8630432 C71.8315783,84.5037316 70.867667,82.1393732 70.6607541,79.6412785 C70.3125349,75.3667608 72.2126008,71.2814928 73.544918,67.2037948 C74.8772352,63.1260967 75.5635804,58.3292502 73.1033356,54.8167776 C72.0940044,53.358294 70.6077642,52.2732629 69.0433009,51.4203781 C61.3547204,47.2316536 45.3593442,45.0086016 42.0335979,56.2475046 Z" id="Shape" fill="#3F3D56"></path><path d="M70.7995372,94.8039565 C68.528542,96.0000139 65.5005483,94.8317131 63.9335617,92.9190304 C62.366575,91.0063478 61.8417227,88.553673 61.2336007,86.2195946 C59.643904,80.1181875 57.1533793,74.2590199 54.8344409,68.3695723 C52.4675592,62.351435 51.0746821,56.3837643 49.419379,50.2142273 C48.7002305,47.5369763 47.8549156,44.9480417 50.4413268,42.757793 C52.5634457,40.9611835 56.2575979,40.9586602 58.2636436,42.8662961 C59.9542734,44.4787027 60.2318395,46.903621 60.6103387,49.1064863 C62.4801247,60.0173566 68.8389113,69.9037557 71.1326165,80.7464962" id="Shape" fill="url(#linearGradient-1)"></path><path d="M69.5933864,82.8257184 C77.6907459,74.9277018 88.4123666,65.3996152 95.5836648,56.7849734 C96.7721523,57.4258987 97.9783031,58.081964 98.9195044,59.0055021 C99.8607058,59.9290401 100.514248,61.1831341 100.357801,62.4397515 C100.196308,63.7468354 99.2172571,64.8268198 98.2811025,65.821011 L84.9049407,80.0500576 L72.7424997,92.977067 C71.844195,93.930885 70.8878536,94.9250762 69.5933864,95.346472" id="Shape" fill="url(#linearGradient-1)"></path><polygon id="Shape" stroke="#002E4E" stroke-width="1.12" fill="#002E4E" points="84.5718614 45.3542976 85.2733466 43.9437572 109.673928 54.1733289 111.619414 56.6916103"></polygon><path d="M100.509201,63.2017965 C101.630367,61.9765355 102.56556,60.5932994 103.284862,59.0963419 C104.04186,57.4713186 104.496059,55.4728429 104.294193,53.7796898 C104.232835,53.4469213 104.217552,53.1072931 104.248773,52.7703586 C104.339613,52.1950398 104.715589,51.7206541 104.796335,51.1453353 C104.882129,50.52712 104.596992,50.0678743 104.544003,49.4824622 C104.480919,48.5917274 104.988108,47.5874428 104.945212,46.6866147 C104.904838,45.8337299 104.347183,45.3820542 103.794574,45.5334538 C103.241965,45.6848535 102.709543,46.2904522 102.280577,46.9995074 C101.851612,47.7085626 101.493299,48.5008876 101.074427,49.2200361 C100.655554,49.9391845 100.153412,50.5977732 99.600803,50.834966 C99.1667906,51.0216923 98.7453948,50.9333758 98.323999,50.9333758 C97.8290481,50.9107309 97.3555534,51.1370614 97.062335,51.5364512 C96.4491663,52.3540094 96.4365497,53.7266999 96.0984237,54.8495808 C95.8400855,55.5745503 95.5218902,56.2767744 95.1471291,56.9489897 C94.7714869,57.6435288 94.5567586,58.4136187 94.5188204,59.2023216 C94.5388719,59.6397574 94.6239144,60.0717734 94.7711532,60.4841723 L95.7174012,63.5601091 C95.9873973,64.4306573 96.2220668,65.9269908 96.6459859,66.5729627 C96.8983187,66.951462 97.0900916,66.6259526 97.4786842,66.2802567 C97.8252212,65.9724107 98.1675527,65.6536302 98.5056786,65.3239154 C99.1920239,64.6577568 99.8581825,63.9487016 100.509201,63.2017965 Z" id="Shape" fill="url(#linearGradient-1)"></path><polygon id="Shape" fill="#B9E77E" points="95.9470241 78.0414885 145.714622 16.8356444 150.776418 20.3228838 101.556382 82.3033895"></polygon><polygon id="Shape" fill="#1D5E17" points="131.059133 45.149908 136.436345 48.4706076 126.736672 60.0274499 121.841416 56.7572168"></polygon><polygon id="Shape" fill="#1D5E17" points="132.979386 52.5886789 149.862974 80.2191206 143.254377 80.6228531 129.184301 56.5099307"></polygon><rect id="Rectangle-path" fill="#1D5E17" x="111.480631" y="79.9768811" width="49.4168556" height="2.32398509"></rect><rect id="Rectangle-path" fill="#1D5E17" x="114.160406" y="84.5819547" width="6.18720027" height="80.3957536"></rect><rect id="Rectangle-path" fill="#1D5E17" x="165.898723" y="84.5819547" width="5.76328116" height="80.3957536"></rect><rect id="Rectangle-path" fill="#B9E77E" x="99.3837968" y="81.8214339" width="89.1491784" height="4.77665991"></rect><rect id="Rectangle-path" fill="#1D5E17" x="109.941401" y="164.977708" width="66.3584799" height="5.42263188"></rect><rect id="Rectangle-path" fill="#1D5E17" x="166.241896" y="170.40034" width="5.34188539" height="12.9118694"></rect><rect id="Rectangle-path" fill="#1D5E17" x="114.723108" y="170.40034" width="5.34188539" height="12.9118694"></rect><path d="M51.7837373,42.1395777 C48.1097717,42.6644299 46.0608294,46.6083916 46.4090487,50.0073144 C46.7572679,53.4062372 48.780977,56.4291842 50.373197,59.5152143 C53.9058562,66.3685732 55.4577029,73.9208939 56.9716997,81.3748048 C61.1579009,76.4795485 65.4828851,71.2991561 66.5805327,65.1548524 C67.5015475,60.00474 65.9421307,54.6956578 62.997407,50.3000204 C60.7213651,46.903621 56.8833832,41.4103359 51.7837373,42.1395777 Z" id="Shape" fill="#3F3D56"></path><path d="M58.5790596,3.52508922 C57.8225241,3.35861017 57.0423216,3.32870099 56.2752612,3.43677274 C54.3903351,3.77742202 51.9856036,2.03884903 49.9669412,1.78651623 C44.1859967,1.06989107 32.2607485,2.07922228 26.7699868,4.02218484 C22.4399559,5.53618164 19.417009,10.1639652 19.7450416,14.7412822 C19.901488,16.8962043 20.7064296,18.9375767 21.2590384,21.0218456 C24.3980585,32.6291544 27.4159588,49.8861947 20.4112002,59.6489507 C18.7432804,61.9729358 16.9138676,64.2186977 14.6353024,65.9572707 C10.5071378,69.0861974 5.17029908,70.2822549 0,70.2469283 C5.04665601,73.8805207 12.6015001,73.4894048 17.2444236,69.3561935 C16.13517,75.4132711 12.5743066,80.7436097 7.40344437,84.0873824 C15.0415582,83.9107495 23.4139606,82.2655396 28.1351073,76.2650656 C26.2772189,80.3516786 23.8797206,84.1707025 21.0067056,87.6200416 C30.0654532,83.9788793 38.3015958,77.8345756 43.3608684,69.4848833 C48.4201411,61.1351909 50.0174077,50.48927 46.5175518,41.372486 C45.8589632,39.6591463 45.0237416,37.9685165 44.8824352,36.1391037 C44.5493559,31.8494461 48.0012686,28.3167869 51.1907552,25.4149597 L56.3913343,20.6761497 C57.8346779,19.3614958 59.3083014,18.0266553 61.0771544,17.201527 C62.8460073,16.3763988 64.7561666,16.108926 66.6612792,15.8414532 C68.0642496,15.6446336 72.3236273,15.7152868 72.6718465,14.355213 C72.9695992,13.1894355 69.8961857,10.0504154 69.151804,9.27827707 C66.3179602,6.29941988 62.6193606,4.28681674 58.5790596,3.52508922 Z" id="Shape" fill="#252525"></path><path d="M64.0773914,6.92148872 C65.5434449,9.40949013 67.6302372,11.0042334 68.7329315,10.4819045 C69.8356259,9.95957563 69.5429198,7.51951745 68.0743429,5.03151604 C66.605766,2.54351463 63.4162794,1.47110023 63.4162794,1.47110023 C63.4162794,1.47110023 62.6088145,4.4334873 64.0773914,6.92148872 Z" id="Shape" fill="url(#linearGradient-2)"></path><ellipse id="Oval" fill="url(#linearGradient-3)" transform="translate(70.428370, 9.538746) rotate(-33.290000) translate(-70.428370, -9.538746) " cx="70.4283699" cy="9.53874588" rx="3.9641483" ry="2.42996487"></ellipse><path d="M65.2179356,9.58107643 C65.2179356,9.58107643 42.6467666,17.7566592 38.8516813,36.1592903 C38.8516813,36.1592903 43.2018988,34.1204413 47.7009926,38.7684115 C47.7009926,38.7684115 49.8937646,26.4293375 68.4503188,11.8873982 L65.2179356,9.58107643 Z" id="Shape" fill="#E12F13"></path><path d="M63.320393,7.15615822 C64.6905601,9.53817986 66.6360459,11.0647933 67.6655638,10.5651744 C68.6950816,10.0655554 68.4225622,7.72895368 67.0498717,5.34693204 C65.6771813,2.96491041 62.7072242,1.93791591 62.7072242,1.93791591 C62.7072242,1.93791591 61.9527492,4.77413659 63.320393,7.15615822 Z" id="Shape" fill="#E12F13"></path><path d="M65.0084994,5.21824231 C66.3786665,7.60026395 68.3216291,9.12687739 69.3536702,8.62725845 C70.3857114,8.1276395 70.1106686,5.79103777 68.7379782,3.40901613 C67.3652877,1.0269945 64.3928074,0 64.3928074,0 C64.3928074,0 63.6383323,2.83622068 65.0084994,5.21824231 Z" id="Shape" fill="#E12F13"></path><path d="M75.8285299,9.16725064 C73.2042687,7.96362318 70.6557075,7.76428027 70.1359019,8.72062158 C69.6160963,9.6769629 71.3193427,11.4281525 73.9436039,12.63178 C76.567865,13.8354075 79.6311852,13.078409 79.6311852,13.078409 C79.6311852,13.078409 78.452791,10.3708781 75.8285299,9.16725064 Z" id="Shape" fill="#E12F13"></path><path d="M75.8285299,10.716574 C73.2042687,9.51294658 70.6557075,9.31360367 70.1359019,10.269945 C69.6160963,11.2262863 71.3193427,12.9799993 73.9436039,14.1811034 C76.567865,15.3822075 79.6311852,14.6277324 79.6311852,14.6277324 C79.6311852,14.6277324 78.452791,11.9202015 75.8285299,10.716574 Z" id="Shape" fill="#E12F13"></path><ellipse id="Oval" fill="#E12F13" transform="translate(69.095357, 9.761520) rotate(-34.804012) translate(-69.095357, -9.761520) " cx="69.0953571" cy="9.76151962" rx="3.72444059" ry="2.30320616"></ellipse></g></g></g></svg> 