<?xml version="1.0" encoding="UTF-8"?> <svg xmlns="http://www.w3.org/2000/svg" xmlns:xlink="http://www.w3.org/1999/xlink" width="300px" height="300px" viewBox="0 0 300 300"><!-- Generator: Sketch 48.1 (47250) - http://www.bohemiancoding.com/sketch --><title>mobile</title><desc>Created with Sketch.</desc><defs><linearGradient x1="-71.4243902%" y1="116.361257%" x2="137.673171%" y2="5.52356021%" id="linearGradient-1"><stop stop-color="#FFFFFF" stop-opacity="0" offset="0%"></stop><stop stop-color="#FFFFFF" stop-opacity="0.51" offset="85%"></stop><stop stop-color="#FFFFFF" offset="99%"></stop></linearGradient><linearGradient x1="264.658897%" y1="21230%" x2="264.183574%" y2="23389%" id="linearGradient-2"><stop stop-color="#FFFFFF" stop-opacity="0" offset="0%"></stop><stop stop-color="#FFFFFF" stop-opacity="0.51" offset="85%"></stop><stop stop-color="#FFFFFF" offset="99%"></stop></linearGradient><linearGradient x1="3487.49824%" y1="39038%" x2="3478.17079%" y2="57199%" id="linearGradient-3"><stop stop-color="#FFFFFF" stop-opacity="0" offset="0%"></stop><stop stop-color="#FFFFFF" stop-opacity="0.51" offset="85%"></stop><stop stop-color="#FFFFFF" offset="99%"></stop></linearGradient><linearGradient x1="57662%" y1="565.682447%" x2="65302.82%" y2="2566.0162%" id="linearGradient-4"><stop stop-color="#FFFFFF" stop-opacity="0" offset="0%"></stop><stop stop-color="#FFFFFF" stop-opacity="0.51" offset="85%"></stop><stop stop-color="#FFFFFF" offset="100%"></stop></linearGradient><linearGradient x1="286.541124%" y1="41101%" x2="289.265794%" y2="43448%" id="linearGradient-5"><stop stop-color="#FFFFFF" stop-opacity="0" offset="0%"></stop><stop stop-color="#FFFFFF" stop-opacity="0.51" offset="85%"></stop><stop stop-color="#FFFFFF" offset="99%"></stop></linearGradient><linearGradient x1="18.9542484%" y1="50.2307692%" x2="183.594771%" y2="49.0512821%" id="linearGradient-6"><stop stop-color="#ECC4D7" offset="0%"></stop><stop stop-color="#EFD4D1" offset="42%"></stop><stop stop-color="#F2EAC9" offset="100%"></stop></linearGradient><linearGradient x1="37092%" y1="31059%" x2="40138%" y2="31059%" id="linearGradient-7"><stop stop-color="#F0DCCE" offset="0%"></stop><stop stop-color="#EFD4D1" offset="42%"></stop><stop stop-color="#F2EAC9" offset="100%"></stop></linearGradient></defs><g id="Page-1" stroke="none" stroke-width="1" fill="none" fill-rule="evenodd"><g id="mobile" fill-rule="nonzero"><path d="M129.892432,1.1965606 C113.570076,4.75883627 99.2041664,14.9200816 86.7947036,26.541276 C74.3852409,38.1624704 63.3173416,51.3604098 50.6283865,62.6896144 C31.0080196,80.2674009 5.85370323,96.0348506 0.878738426,122.547525 C-3.09005372,143.804383 7.64245462,165.061242 8.14554095,186.726885 C8.42503335,203.136713 2.89108374,219.020958 1.71721564,235.372388 C0.54334754,251.490225 4.06495184,268.54243 14.1825769,280.747604 C28.604385,298.150197 53.3115135,302.238054 75.1678196,298.967768 C97.0241256,295.697482 117.594767,286.353808 139.115682,281.389982 C165.052577,275.433389 192.051543,275.900573 218.491525,278.878869 C234.646186,280.689206 251.583425,283.317114 266.787812,277.243726 C280.315245,271.871114 290.991854,259.841134 296.134515,245.708827 C301.277175,231.57652 301.10948,215.633876 296.6935,201.267978 C290.600565,181.354273 277.129031,164.886048 268.520665,146.023506 C261.197964,129.964066 257.564563,112.444678 253.539872,95.1588812 C250.856745,83.7128807 247.838227,71.8580944 240.403729,62.9816042 C231.963059,52.7619609 219.162306,48.031726 207.814915,41.5495522 C180.368761,25.8988985 165.723359,-6.62876628 129.892432,1.1965606 Z" id="Shape" fill="#5B74BC" opacity="0.18"></path><g id="Group-5" transform="translate(61.000000, 42.000000)"><path d="M13.564878,6.16476869e-15 L88,0 L88,232 L13.564878,232 C6.07320277,232 0,225.862584 0,218.291698 L0,13.7083022 C-6.10026934e-15,6.13741594 6.07320277,0 13.564878,6.16476869e-15 Z" id="Shape" fill="#5B74BC"></path><path d="M13.564878,6.16476869e-15 L88,0 L88,232 L13.564878,232 C6.07320277,232 0,225.862584 0,218.291698 L0,13.7083022 C-6.10026934e-15,6.13741594 6.07320277,0 13.564878,6.16476869e-15 Z" id="Shape" fill="url(#linearGradient-1)"></path><path d="M21.1210822,0 L119.878918,0 C128.782346,0 136,7.24448147 136,16.1810022 L136,215.818998 C136,224.755519 128.782346,232 119.878918,232 L21.1210822,232 C12.2176543,232 5,224.755519 5,215.818998 L5,16.1810022 C5,7.24448147 12.2176543,0 21.1210822,0 Z" id="Shape" fill="#5B74BC"></path><path d="M131.999995,14.1850438 L131.999995,206.814961 C131.976258,211.325589 128.3164,214.976322 123.794498,215 L20.1621012,215 C15.6433111,214.98567 11.9904122,211.322497 12.0000189,206.814961 L12.0000189,14.1850438 C11.9904122,9.6775076 15.6433111,6.01433443 20.1621012,6.0000046 L40.6541377,6.0000046 L40.6541377,8.55512265 C40.6541377,13.0995128 44.3473019,16.7834689 48.9030507,16.7834689 L94.8798869,16.7834689 C99.4356357,16.7834689 103.1288,13.0995128 103.1288,8.55512265 L103.1288,6.0000046 L123.794498,6.0000046 C125.971438,5.99770305 128.059879,6.85931381 129.599209,8.39480561 C131.138538,9.93029742 132.002303,12.0135317 131.999995,14.1850438 Z" id="Shape" fill="#FFFFFF"></path><path d="M59.0888097,7.00004441 L82.9111903,7.00004441 C83.2006634,6.99710872 83.4789614,7.13982998 83.6836565,7.39619298 C83.8883516,7.65255598 84.0023086,8.00110026 83.9999645,8.3636404 L83.9999645,8.6363596 C84.0023086,8.99889974 83.8883516,9.34744402 83.6836565,9.60380702 C83.4789614,9.86017002 83.2006634,10.0028913 82.9111903,9.99995559 L59.0888097,9.99995559 C58.7993366,10.0028913 58.5210386,9.86017002 58.3163435,9.60380702 C58.1116484,9.34744402 57.9976914,8.99889974 58.0000355,8.6363596 L58.0000355,8.3636404 C58.0093716,7.61544392 58.4914062,7.01173711 59.0888097,7.00004441 Z" id="Shape" fill="url(#linearGradient-2)"></path><path d="M123,6 L123,180.224897 C122.990432,188.381002 116.368553,194.99045 108.197109,195 L12,195 L12.0000189,14.1891334 C11.9904133,9.67934253 15.6428838,6.014337 20.1611438,6 L40.6507766,6 L40.6507766,8.55639615 C40.6507766,13.1030595 44.3435076,16.7888583 48.898722,16.7888583 L94.8701651,16.7888583 C99.4253796,16.7888583 103.118111,13.1030595 103.118111,8.55639615 L103.118111,6 L123,6 Z" id="Shape" fill="#EBEBF0"></path><path d="M34.9038462,83 L156.096154,83 C160.46034,83.0023488 163.997617,86.4890859 164,90.7909177 L164,120.209082 C163.997617,124.510914 160.46034,127.997651 156.096154,128 L34.9038462,128 C30.5396598,127.997651 27.0023828,124.510914 27,120.209082 L27,90.7909177 C27.0023828,86.4890859 30.5396598,83.0023488 34.9038462,83 Z" id="Shape" fill="#5B74BC"></path><path d="M34.9038462,83 L156.096154,83 C160.46034,83.0023488 163.997617,86.4890859 164,90.7909177 L164,120.209082 C163.997617,124.510914 160.46034,127.997651 156.096154,128 L34.9038462,128 C30.5396598,127.997651 27.0023828,124.510914 27,120.209082 L27,90.7909177 C27.0023828,86.4890859 30.5396598,83.0023488 34.9038462,83 Z" id="Shape" fill="url(#linearGradient-3)"></path><path d="M36.9038462,80 L158.096154,80 C162.46034,80.0023488 165.997617,83.4890859 166,87.7909177 L166,117.209082 C165.997617,121.510914 162.46034,124.997651 158.096154,125 L36.9038462,125 C32.5396598,124.997651 29.0023828,121.510914 29,117.209082 L29,87.7909177 C29.0023828,83.4890859 32.5396598,80.0023488 36.9038462,80 Z" id="Shape" fill="#FFFFFF"></path><rect id="Rectangle-path" fill="#FFFFFF" x="23" y="29" width="21" height="21"></rect><path d="M41.1120377,88.0001135 L61.8880758,88.0001135 C64.1590288,88.0001135 66,89.8410846 66,92.1120377 L66,112.888076 C66,113.978626 65.5667807,115.02451 64.7956453,115.795645 C64.0245099,116.566781 62.9786259,117 61.8880758,117 L41.1120377,117 C40.0214876,117 38.9756036,116.566781 38.2044682,115.795645 C37.4333328,115.02451 37.0001135,113.978626 37.0001135,112.888076 L37.0001135,92.1120377 C36.9919692,91.0190112 37.4225728,89.9683886 38.1954807,89.1954807 C38.9683886,88.4225728 40.0190112,87.9919692 41.1120377,88.0001135 Z" id="Shape" fill="#EBEBF0"></path><rect id="Rectangle-path" fill="#FFFFFF" x="23" y="54" width="21" height="21"></rect><rect id="Rectangle-path" fill="#FFFFFF" x="23" y="136" width="21" height="21"></rect><rect id="Rectangle-path" fill="#FFFFFF" x="23" y="161" width="21" height="21"></rect><path d="M66,110.012751 L66,113.876149 C66,114.969862 65.566779,116.01878 64.7956406,116.792152 C64.0245022,117.565524 62.9786141,118 61.8880597,118 L41.1119403,118 C40.0213859,118 38.9754978,117.565524 38.2043594,116.792152 C37.433221,116.01878 37,114.969862 37,113.876149 L37,110.012751 C40.4586713,107.713211 44.3708659,106.188217 48.4701493,105.541628 C46.0231206,104.16664 44.8147204,101.304603 45.5331011,98.5853718 C46.2514819,95.8661409 48.7143778,93.9796333 51.5192335,94.000166 C54.3240893,94.0206987 56.7592634,95.9430622 57.4379876,98.6725205 C58.1167118,101.401979 56.8667817,104.24602 54.4,105.585037 C60.5462687,106.583443 66,110.012751 66,110.012751 Z" id="Shape" fill="#FFFFFF" opacity="0.38"></path><path d="M156.700535,94 L78.2994652,94 C77.5817904,94 77,93.3284271 77,92.5 C77,91.6715729 77.5817904,91 78.2994652,91 L156.700535,91 C157.41821,91 158,91.6715729 158,92.5 C158,93.3284271 157.41821,94 156.700535,94 Z" id="Shape" fill="#EBEBF0"></path><path d="M52.2146119,35 L125.785388,35 C126.4562,35 127,35.6715729 127,36.5 C127,37.3284271 126.4562,38 125.785388,38 L52.2146119,38 C51.8924768,38 51.5835355,37.8419647 51.3557516,37.5606602 C51.1279677,37.2793556 51,36.8978247 51,36.5 C51,36.1021753 51.1279677,35.7206444 51.3557516,35.4393398 C51.5835355,35.1580353 51.8924768,35 52.2146119,35 Z" id="Shape" fill="#FFFFFF"></path><path d="M125.785388,46 L52.2146119,46 C51.8924768,46 51.5835355,45.8419647 51.3557516,45.5606602 C51.1279677,45.2793556 51,44.8978247 51,44.5 C51,43.6715729 51.5438003,43 52.2146119,43 L125.785388,43 C126.4562,43 127,43.6715729 127,44.5 C126.986189,45.3212586 126.450395,45.9829442 125.785388,46 Z" id="Shape" fill="#FFFFFF"></path><path d="M125.785388,62 L52.2146119,62 C51.8924768,62 51.5835355,61.8419647 51.3557516,61.5606602 C51.1279677,61.2793556 51,60.8978247 51,60.5 C51,59.6715729 51.5438003,59 52.2146119,59 L125.785388,59 C126.4562,59 127,59.6715729 127,60.5 C126.986189,61.3212586 126.450395,61.9829442 125.785388,62 Z" id="Shape" fill="#FFFFFF"></path><path d="M125.785388,69 L52.2146119,69 C51.8924768,69 51.5835355,68.8419647 51.3557516,68.5606602 C51.1279677,68.2793556 51,67.8978247 51,67.5 C51,66.6715729 51.5438003,66 52.2146119,66 L125.785388,66 C126.4562,66 127,66.6715729 127,67.5 C126.986189,68.3212586 126.450395,68.9829442 125.785388,69 Z" id="Shape" fill="#FFFFFF"></path><path d="M125.785388,144 L52.2146119,144 C51.8924768,144 51.5835355,143.841965 51.3557516,143.56066 C51.1279677,143.279356 51,142.897825 51,142.5 C51,141.671573 51.5438003,141 52.2146119,141 L125.785388,141 C126.4562,141 127,141.671573 127,142.5 C126.986189,143.321259 126.450395,143.982944 125.785388,144 Z" id="Shape" fill="#FFFFFF"></path><path d="M125.785388,151 L52.2146119,151 C51.8924768,151 51.5835355,150.841965 51.3557516,150.56066 C51.1279677,150.279356 51,149.897825 51,149.5 C51,148.671573 51.5438003,148 52.2146119,148 L125.785388,148 C126.4562,148 127,148.671573 127,149.5 C126.986189,150.321259 126.450395,150.982944 125.785388,151 Z" id="Shape" fill="#FFFFFF"></path><path d="M125.785388,170 L52.2146119,170 C51.8924768,170 51.5835355,169.841965 51.3557516,169.56066 C51.1279677,169.279356 51,168.897825 51,168.5 C51,168.102175 51.1279677,167.720644 51.3557516,167.43934 C51.5835355,167.158035 51.8924768,167 52.2146119,167 L125.785388,167 C126.4562,167 127,167.671573 127,168.5 C126.986189,169.321259 126.450395,169.982944 125.785388,170 Z" id="Shape" fill="#FFFFFF"></path><path d="M125.785388,176 L52.2146119,176 C51.8924768,176 51.5835355,175.841965 51.3557516,175.56066 C51.1279677,175.279356 51,174.897825 51,174.5 C51,173.671573 51.5438003,173 52.2146119,173 L125.785388,173 C126.4562,173 127,173.671573 127,174.5 C126.986189,175.321259 126.450395,175.982944 125.785388,176 Z" id="Shape" fill="#FFFFFF"></path><path d="M156.700535,102 L78.2994652,102 C77.5817904,102 77,101.328427 77,100.5 C77,99.6715729 77.5817904,99 78.2994652,99 L156.700535,99 C157.41821,99 158,99.6715729 158,100.5 C158,101.328427 157.41821,102 156.700535,102 Z" id="Shape" fill="#EBEBF0"></path><path d="M156.700535,111 L78.2994652,111 C77.5817904,111 77,110.328427 77,109.5 C77,108.671573 77.5817904,108 78.2994652,108 L156.700535,108 C157.41821,108 158,108.671573 158,109.5 C158,110.328427 157.41821,111 156.700535,111 Z" id="Shape" fill="#EBEBF0"></path><path d="M141.916222,167.043648 L137.086858,203.271661 C136.881555,204.801328 137.041509,206.359506 137.552849,207.811075 L146.194869,234 L151.236048,232.385016 L147.423392,206.327036 C147.345743,205.788324 147.374562,205.239001 147.508117,204.712052 L154.074358,181.403909 L156.912669,233.956352 L161.572582,233.956352 L165.597052,182.058632 C166.952663,173.416287 164.453255,167 164.453255,167 L141.916222,167.043648 Z" id="Shape" fill="#3F3D56"></path><path d="M166.878749,134.947007 L166.878749,159.559372 C166.878749,162.581943 166.399583,165 163.350343,165 L142.092783,165 C139.043543,165 138.956422,162.581943 138.912861,159.559372 L138.738619,142.805692 C138.738619,142.805692 134.164759,150.923454 130.505671,150.146222 C126.846583,149.368989 116,134.515211 116,134.515211 L121.401511,130.024534 L130.505671,139.092247 C130.505671,139.092247 131.98673,135.810599 134.077638,128.426889 C136.168545,121.04318 143.138237,121 143.138237,121 L161.60792,121 C168.272688,121 166.878749,134.947007 166.878749,134.947007 Z" id="Shape" fill="#E12F13"></path><path d="M167.058804,110 C167.058804,110 173.648003,123.502196 173.988091,128.130307 C174.328179,132.758419 167.271359,139 167.271359,139 L162,120.742313 L167.016293,120.742313 L167.016293,110 L167.058804,110 Z" id="Shape" fill="#E12F13"></path><path d="M167.058804,110 C167.058804,110 173.648003,123.502196 173.988091,128.130307 C174.328179,132.758419 167.271359,139 167.271359,139 L162,120.742313 L167.016293,120.742313 L167.016293,110 L167.058804,110 Z" id="Shape" fill="url(#linearGradient-4)"></path><path d="M166.935477,139 C166.935477,139 171.454724,127.072607 170.962529,124.369637 C170.470333,121.666667 166.667007,113 166.667007,113 L166.667007,120.594059 L160,120.722772 L166.935477,139 Z" id="Shape" fill="#E12F13"></path><rect id="Rectangle-path" fill="#E12F13" x="141" y="165" width="23" height="2"></rect><rect id="Rectangle-path" fill="url(#linearGradient-5)" x="141" y="165" width="23" height="2"></rect><rect id="Rectangle-path" fill="url(#linearGradient-6)" x="149" y="104" width="6" height="17"></rect><path d="M156,103 L156,122 L152.648276,122 L152.648276,120.859122 C152.648276,119.453539 151.573759,118.314088 150.248276,118.314088 L150.041379,118.314088 C148.443924,118.322252 146.909077,117.655937 145.775617,116.462214 C144.642158,115.268491 144.00328,113.645508 144,111.951501 L144,103.04388 L156,103.04388 L156,103 Z" id="Shape" fill="url(#linearGradient-7)"></path><path d="M144.798992,96.0220141 C146.189472,95.2340436 147.88412,95.1464914 149.535315,95.1027152 L152.968062,95.015163 C153.736799,94.9787154 154.50722,95.0080044 155.271045,95.1027152 C156.753465,95.3492113 158.077334,96.1805259 158.949859,97.4128022 C159.822384,98.6450785 160.171668,100.176775 159.920462,101.669135 C159.844838,102.074017 159.72836,102.470058 159.572842,102.851091 C159.440648,103.127253 159.352655,103.422747 159.312127,103.726614 C159.385976,104.205059 159.548095,104.665343 159.790105,105.083674 C160.268082,106.396958 159.485937,107.797794 158.616887,108.848421 C157.747837,109.899048 156.704977,110.993452 156.57462,112.394288 C156.531167,112.832049 156.57462,113.357363 156.270452,113.707572 C155.884734,114.061759 155.306463,114.09817 154.879972,113.795124 C154.482383,113.490888 154.156031,113.102327 153.924017,112.656945 C153.96747,113.313587 153.054967,113.663796 152.490085,113.357363 C151.952869,112.983129 151.603916,112.391881 151.53413,111.737646 C151.458863,111.09517 151.267409,110.472019 150.969247,109.899048 C150.66508,109.461287 150.187102,109.154854 150.056745,108.629541 C149.79603,107.754018 150.66508,106.790943 150.31746,105.91542 C150.056745,105.215002 149.057337,104.996121 148.362097,105.302554 C147.69639,105.674185 147.141335,106.218262 146.754355,106.878495 C147.406142,106.002973 146.884712,104.514584 146.189472,103.814166 C145.10316,102.63221 143.495417,103.639061 142.582915,102.807315 C140.888267,101.143822 143.278155,96.8975367 144.798992,96.0220141 Z" id="Shape" fill="#3F3D56"></path><path d="M154,121.088436 C154,121.088436 151.38657,124.537454 147.814882,124.537454 C144.243194,124.537454 133.745917,134.972941 133.049002,138.112431 C132.352087,141.251921 130,139.527413 130,139.527413 C130,139.527413 131.480944,136.166832 133.571688,128.605525 C135.662432,121.044218 142.631579,121 142.631579,121 L152.039927,121 L154,121.088436 Z" id="Shape" fill="#FFFFFF" opacity="0.25"></path><path d="M150.222928,231 L152,235.247423 L144.849401,238.546392 L138.206538,239 C138.206538,239 137.064134,234.752577 140.152855,234.381443 C141.957404,234.18057 143.67765,233.52699 145.14558,232.484536 L150.222928,231 Z" id="Shape" fill="#222A72"></path><path d="M156.416667,233 C154.615475,233.73474 153.369464,235.366729 153.166667,237.256757 L153,239 L161,239 L161,233 L156.416667,233 Z" id="Shape" fill="#222A72"></path><path d="M121,130.164362 L117.540925,125.755584 C117.540925,125.755584 116.345196,121.03819 115.704626,123.947984 C115.320285,125.579232 114.295374,128.533114 114.295374,128.533114 L109,128.533114 C109,128.533114 112.715302,132.589191 114.295374,133.338683 C115.016667,133.665836 115.778338,133.888385 116.558719,134 L121,130.164362 Z" id="Shape" fill="url(#linearGradient-7)"></path></g></g></g></svg> 