<?xml version="1.0" encoding="UTF-8"?> <svg xmlns="http://www.w3.org/2000/svg" xmlns:xlink="http://www.w3.org/1999/xlink" width="300px" height="300px" viewBox="0 0 300 300"><!-- Generator: Sketch 48.1 (47250) - http://www.bohemiancoding.com/sketch --><title>social-media</title><desc>Created with Sketch.</desc><defs><linearGradient x1="49.9988122%" y1="-106.307368%" x2="49.9988122%" y2="751.536871%" id="linearGradient-1"><stop stop-color="#010101" stop-opacity="0" offset="12%"></stop><stop stop-color="#010101" offset="95%"></stop></linearGradient><linearGradient x1="-0.0568076344%" y1="50.0939622%" x2="100.119646%" y2="50.0939622%" id="linearGradient-2"><stop stop-color="#FBEEE5" offset="0%"></stop><stop stop-color="#EAD4D0" offset="42%"></stop><stop stop-color="#F0E9CB" offset="100%"></stop></linearGradient><linearGradient x1="56197%" y1="7242.70969%" x2="58298%" y2="4818.53458%" id="linearGradient-3"><stop stop-color="#010101" stop-opacity="0" offset="12%"></stop><stop stop-color="#010101" offset="95%"></stop></linearGradient><linearGradient x1="53803.1551%" y1="38660%" x2="65856.6244%" y2="29631%" id="linearGradient-4"><stop stop-color="#010101" stop-opacity="0" offset="12%"></stop><stop stop-color="#010101" offset="95%"></stop></linearGradient><linearGradient x1="57824%" y1="5818.69216%" x2="59096%" y2="5689.20988%" id="linearGradient-5"><stop stop-color="#010101" stop-opacity="0" offset="12%"></stop><stop stop-color="#010101" offset="95%"></stop></linearGradient><linearGradient x1="55701%" y1="20794%" x2="57161%" y2="20794%" id="linearGradient-6"><stop stop-color="#F0DCCE" offset="0%"></stop><stop stop-color="#EAD4D0" offset="42%"></stop><stop stop-color="#F0E9CB" offset="100%"></stop></linearGradient><linearGradient x1="54835%" y1="16040.1911%" x2="62046%" y2="10846.6077%" id="linearGradient-7"><stop stop-color="#010101" stop-opacity="0" offset="12%"></stop><stop stop-color="#010101" offset="95%"></stop></linearGradient><linearGradient x1="76.1475296%" y1="88.3278689%" x2="-152.115065%" y2="-189.180328%" id="linearGradient-8"><stop stop-color="#010101" stop-opacity="0" offset="0%"></stop><stop stop-color="#010101" offset="95%"></stop></linearGradient><linearGradient x1="56535%" y1="19260%" x2="58710%" y2="19260%" id="linearGradient-9"><stop stop-color="#F0DCCE" offset="0%"></stop><stop stop-color="#EAD4D0" offset="42%"></stop><stop stop-color="#F0E9CB" offset="100%"></stop></linearGradient><linearGradient x1="52293%" y1="10452.5944%" x2="60978%" y2="12743.9556%" id="linearGradient-10"><stop stop-color="#010101" stop-opacity="0" offset="12%"></stop><stop stop-color="#010101" offset="95%"></stop></linearGradient><linearGradient x1="59938%" y1="24978%" x2="62412%" y2="24978%" id="linearGradient-11"><stop stop-color="#F0DCCE" offset="0%"></stop><stop stop-color="#EAD4D0" offset="42%"></stop><stop stop-color="#F0E9CB" offset="100%"></stop></linearGradient><linearGradient x1="55176%" y1="41114%" x2="57348%" y2="41114%" id="linearGradient-12"><stop stop-color="#FBEEE5" offset="0%"></stop><stop stop-color="#EAD4D0" offset="42%"></stop><stop stop-color="#F0E9CB" offset="100%"></stop></linearGradient><linearGradient x1="14042%" y1="11582%" x2="13982%" y2="16035%" id="linearGradient-13"><stop stop-color="#010101" stop-opacity="0" offset="12%"></stop><stop stop-color="#010101" offset="95%"></stop></linearGradient><linearGradient x1="15557%" y1="11582%" x2="15496%" y2="16035%" id="linearGradient-14"><stop stop-color="#010101" stop-opacity="0" offset="12%"></stop><stop stop-color="#010101" offset="95%"></stop></linearGradient><linearGradient x1="17072%" y1="11582%" x2="17011%" y2="16035%" id="linearGradient-15"><stop stop-color="#010101" stop-opacity="0" offset="12%"></stop><stop stop-color="#010101" offset="95%"></stop></linearGradient></defs><g id="Page-1" stroke="none" stroke-width="1" fill="none" fill-rule="evenodd"><g id="social-media" fill-rule="nonzero"><path d="M221.723101,298.046941 C236.755205,296.653235 252.074688,294.326552 265.599161,285.693638 C279.123634,277.060723 290.685091,260.92944 292.568525,241.498183 C294.451959,222.066927 286.697162,202.877553 287.820148,183.331114 C288.81492,166.094081 296.591824,150.740278 299.134018,133.773923 C302.180229,113.467281 297.05605,91.3868313 285.870396,76.6780497 C277.244621,65.3095552 265.709691,58.6059445 254.444455,52.1557348 L189.558818,14.9691244 C180.172595,9.59011033 170.680263,4.17078241 160.599911,1.72315821 C148.569806,-1.23126817 136.199268,0.208510771 124.01,1.64828971 C109.053056,3.37602443 93.4771428,5.41475141 80.7396448,15.7696415 C67.1974871,26.7580344 58.7176116,45.7055252 46.585819,59.2394472 C33.2558793,74.0979659 15.2659871,82.7884715 6.11408815,102.288837 C-4.05468845,123.931594 0.0260858139,151.990006 7.02927805,175.654213 C14.0324703,199.31842 23.7944958,222.521897 24.2719862,247.879284 C24.6787373,269.545077 22.8439363,286.816665 41.3290036,289.414026 C60.5258854,292.115052 80.0897273,293.589385 99.3794544,295.547485 C140.058982,299.647975 180.968412,301.824921 221.723101,298.046941 Z" id="Shape" fill="#A1E5E6" opacity="0.24"></path><g id="Group-3" transform="translate(22.000000, 75.000000)"><path d="M4.52954209,160.760488 C6.16218036,166.099828 13.3002267,167.255151 19.0381909,167.434664 L189.511254,172.658933 C201.561454,173.027163 213.663859,173.395393 225.642868,172.04675 C238.374144,170.603606 250.794341,167.238121 262.453166,162.072308 C264.323106,161.239187 266.373396,160.139099 266.881222,158.205889 C267.707034,155.089739 264.06682,152.682433 260.915448,151.679005 C251.200301,148.613487 240.749518,148.885057 230.540783,149.152024 C165.467808,150.873501 99.279514,153.713478 34.2587459,150.348773 C26.6983018,149.957528 -0.0788641756,145.70907 4.52954209,160.760488 Z" id="Shape" fill="#A1E5E6" opacity="0.24"></path><path d="M219.999999,11.3389222 L220,12 L20,12 L20.000001,11.3389222 C19.9987399,8.33126373 21.1832333,5.44642595 23.2926394,3.31969005 C25.4020455,1.19295415 28.263376,-0.00127045432 31.2465264,1.01424132e-06 L208.753474,1.01424132e-06 C211.736624,-0.00127045432 214.597955,1.19295415 216.707361,3.31969005 C218.816767,5.44642595 220.00126,8.33126373 219.999999,11.3389222 Z" id="Shape" fill="#A1E5E6"></path><path d="M219.999999,11.3389222 L220,12 L20,12 L20.000001,11.3389222 C19.9987399,8.33126373 21.1832333,5.44642595 23.2926394,3.31969005 C25.4020455,1.19295415 28.263376,-0.00127045432 31.2465264,1.01424132e-06 L208.753474,1.01424132e-06 C211.736624,-0.00127045432 214.597955,1.19295415 216.707361,3.31969005 C218.816767,5.44642595 220.00126,8.33126373 219.999999,11.3389222 Z" id="Shape" fill="url(#linearGradient-1)"></path><rect id="Rectangle-path" fill="#FFFFFF" x="20" y="12" width="200" height="144"></rect><path d="M215.02108,31.3970469 C214.44961,33.4247545 213.928712,35.6324923 214.19169,37.8023289 C214.399037,39.4747139 215.046366,40.9291678 215.466119,42.5068001 C216.341025,45.8231443 216.158963,49.5327123 216.012303,53.1001511 C215.400026,67.8685118 215.592452,82.6565195 216.58883,97.4065102 C216.74546,99.0083951 216.77082,100.619169 216.664689,102.224685 C216.472589,103.727043 216.176965,105.216189 215.779669,106.682799 C214.991091,110.055038 214.452053,113.474269 214.166403,116.91609 C213.898369,120.128206 213.857911,123.548778 214.788446,126.443473 C216.012303,130.23358 218.63702,132.446056 221.206107,134 C221.833207,131.962817 221.949524,129.655589 222.050669,127.40995 C223.532446,93.8674971 223.279583,60.1355385 221.292081,26.6688876 C221.125191,23.8263068 223.557732,15.0948462 221.150477,18.9797066 C219.451238,21.6754207 215.946558,28.0238511 215.02108,31.3970469 Z" id="Shape" fill="#A1E5E6" opacity="0.24"></path><path d="M224.154914,145.73786 C223.741443,146.29803 223.457138,146.956214 223.325407,147.658218 C222.795903,149.943248 222.914714,152.347333 223.666427,154.558569 C223.901454,155.250096 224.486717,156.051075 225.104239,155.737648 C225.263515,155.637757 225.417378,155.528128 225.565076,155.409297 C226.022033,155.219409 226.530739,155.237356 226.975238,155.459047 C231.652735,157.016228 236.721944,157.598305 241.454741,156.23515 C242.076871,156.05605 242.772736,155.737648 242.95707,155.090896 C243.164447,154.334693 242.583792,153.59839 242.003138,153.135713 C239.238115,150.87208 235.551417,150.424328 232.325557,149.100973 C230.713308,148.443832 229.187352,147.562451 227.786311,146.479138 C226.574309,145.56871 225.486734,144.101079 224.154914,145.73786 Z" id="Shape" fill="#3F3D56"></path><path d="M226.320058,148.263633 C226.877636,149.44955 227.796673,150.443203 228.954568,151.112039 C230.819623,152.401224 233.072145,153.062943 235.365211,152.995282 C236.041194,152.984073 236.699732,152.786396 237.263034,152.425601 C237.83222,152.050964 238.108355,151.38011 237.960692,150.730682 C237.855788,150.430585 237.68993,150.153685 237.472819,149.916179 C235.853083,148.032936 233.760111,146.347433 233.081968,143.979254 C232.925849,143.437822 232.818517,142.82106 232.35016,142.486784 C232.055827,142.309123 231.720742,142.204029 231.374415,142.180757 C229.949828,141.968892 227.593404,141.672281 226.754264,143.075298 C225.93027,144.688309 225.774975,146.543919 226.320058,148.263633 Z" id="Shape" fill="url(#linearGradient-2)"></path><path d="M230.558496,95 C230.558496,95 232.076428,119.590461 231.127133,121.723552 C230.177838,123.856642 226,142.814785 226,142.814785 C226,142.814785 231.127133,145.911362 232.833045,144.73217 C234.538956,143.552978 241.569379,115.880321 241.569379,115.880321 L245,99.0696494 L230.558496,95 Z" id="Shape" fill="#3F3D56"></path><path d="M229.561881,94 C229.561881,94 231.080941,118.59202 230.130941,120.720452 C229.180941,122.848884 225,141.813022 225,141.813022 C225,141.813022 230.130941,144.914589 231.838119,143.730529 C233.545297,142.546468 240.576238,114.881645 240.576238,114.881645 L244,98.0315572 L229.561881,94 Z" id="Shape" fill="url(#linearGradient-3)"></path><path d="M225,83.8822715 C225,83.8822715 226.541557,94.7458449 232.210351,96.4134349 C237.879145,98.0810249 253.501572,103.461911 253.501572,103.461911 C253.501572,103.461911 236.987701,113.545014 236.391764,114.23338 C235.795826,114.921745 233.008218,116.482687 233.008218,116.482687 L236.9483,125 C236.9483,125 263.051347,111.635042 265.745379,109.00277 C268.43941,106.370499 268.42956,99.4577562 267.22291,98.4300554 C266.016259,97.4023546 248.418866,83 248.418866,83 L225,83.8822715 Z" id="Shape" fill="#3F3D56"></path><path d="M225,83.8822715 C225,83.8822715 226.541557,94.7458449 232.210351,96.4134349 C237.879145,98.0810249 253.501572,103.461911 253.501572,103.461911 C253.501572,103.461911 236.987701,113.545014 236.391764,114.23338 C235.795826,114.921745 233.008218,116.482687 233.008218,116.482687 L236.9483,125 C236.9483,125 263.051347,111.635042 265.745379,109.00277 C268.43941,106.370499 268.42956,99.4577562 267.22291,98.4300554 C266.016259,97.4023546 248.418866,83 248.418866,83 L225,83.8822715 Z" id="Shape" fill="url(#linearGradient-4)"></path><rect id="Rectangle-path" fill="#A1E5E6" transform="translate(258.000000, 42.000000) rotate(19.885165) translate(-258.000000, -42.000000) " x="257" y="36" width="2" height="12" rx="1"></rect><path d="M244.848018,13.8043829 C245.314938,16.0048552 244.692536,18.2905286 243.166409,19.9798257 C242.802114,20.4189767 242.318511,20.7504799 241.770259,20.9368682 C240.796899,21.1543215 239.782378,20.7998665 239.175183,20.0301963 C238.594429,19.2759879 238.235649,18.3828595 238.137153,17.4461815 C237.747892,14.9276486 238.137153,11.4419989 239.953706,9.46243202 C241.770259,7.48286512 244.541799,12.4141527 244.848018,13.8043829 Z" id="Shape" fill="#606161"></path><path d="M244.848018,13.8043829 C245.314938,16.0048552 244.692536,18.2905286 243.166409,19.9798257 C242.802114,20.4189767 242.318511,20.7504799 241.770259,20.9368682 C240.796899,21.1543215 239.782378,20.7998665 239.175183,20.0301963 C238.594429,19.2759879 238.235649,18.3828595 238.137153,17.4461815 C237.747892,14.9276486 238.137153,11.4419989 239.953706,9.46243202 C241.770259,7.48286512 244.541799,12.4141527 244.848018,13.8043829 Z" id="Shape" fill="url(#linearGradient-5)"></path><path d="M232.472345,30.5983826 C232.472345,31.4137769 232.44358,32.418104 231.748439,32.8009415 C231.508401,32.9109251 231.248596,32.9668471 230.98618,32.9650148 C230.097523,33.0809346 229.196107,32.9071698 228.406967,32.4678231 C227.487623,31.7792378 226.960601,30.6599781 227.002302,29.4846734 C227.049445,28.3334463 227.314987,27.2031547 227.783737,26.1584614 C228.49326,24.3486839 229.389753,22.5289625 230.909475,21.3754779 C231.139398,21.1761129 231.418259,21.0470031 231.71488,21.0025842 C233.210632,20.898174 234.15986,23.985734 233.977685,25.16905 C233.709217,27.0832378 232.529873,28.5996723 232.472345,30.5983826 Z" id="Shape" fill="url(#linearGradient-6)"></path><path d="M223.108742,30.2518147 C223.108742,30.2518147 228.409615,29.2087449 230.742746,31.3684049 C233.075876,33.5280648 238.092107,37.8381945 239.86062,41.5969218 C241.629133,45.355649 242.333739,51.4808121 242.333739,51.4808121 L247,81.4127795 C247,81.4127795 228.054979,84.3352129 224.802595,82.2490733 C221.550211,80.1629338 225.227225,60.1148568 223.813348,57.1878283 C222.399471,54.2607999 217.30858,38.3941921 219.571716,34.4976142 C221.834853,30.6010363 223.108742,30.2518147 223.108742,30.2518147 Z" id="Shape" fill="#E61615"></path><path d="M244,63.826793 C244,63.826793 237.513066,70.9775986 232.846399,68.4647653 C228.179732,65.951932 227.260676,57.6380435 227.260676,57.6380435 L223,39 L235.188655,58.9925803 L243.299554,59.3802746 L244,63.826793 Z" id="Shape" fill="url(#linearGradient-7)"></path><path d="M227.78722,36.3691173 L239.460941,49.4813132 L246.918377,45.9960842 C246.918377,45.9960842 251,50.7382056 251,52.4094581 C251,54.0807106 239.038384,62.4553891 237.213494,60.7795326 C235.388605,59.1036761 223.974919,46.5531683 222.860483,44.6010718 C221.746047,42.6489752 220.469089,34.1407807 227.78722,36.3691173 Z" id="Shape" fill="#E12F13"></path><path d="M233.449865,21 C233.449865,21 232.024264,25.3606557 234.248645,27.5134426 L235.424628,28 L237,24.5022951 L233.449865,21 Z" id="Shape" fill="url(#linearGradient-8)"></path><path d="M243.70649,22.3269212 C243.890658,22.5611523 243.993477,22.8465995 244,23.1417695 C243.971713,23.2816333 243.911141,23.4133681 243.822882,23.5269705 C242.947414,24.8257893 241.530471,25.6752069 240.53355,26.8851332 C239.835199,27.7246738 239.217817,28.8160767 238.124746,28.9889233 C237.426946,29.0473755 236.729448,28.873289 236.146087,28.4950758 C233.403289,26.9592103 232.694818,23.9220485 233.10978,22.6973068 C233.524742,21.4725651 234.121882,20.3169621 234.59251,19.1020974 C235.133984,17.6452474 235.508462,16.0056739 236.743227,15.0426714 C237.591533,14.4717784 238.579959,14.1309341 239.607476,14.0549765 C240.002279,13.9741069 240.410818,13.9825537 240.801757,14.0796688 C241.970735,14.4500544 243.332013,15.9809815 243.453465,17.1859693 C243.645764,18.8206043 242.871506,20.8108095 243.70649,22.3269212 Z" id="Shape" fill="url(#linearGradient-9)"></path><path d="M238.952066,18.0948655 C237.935801,18.617074 236.678469,18.4224326 235.643296,18.9066623 C234.03618,19.6662383 233.572952,21.6886094 232.594502,23.1792773 C232.041465,24.0148109 231.294628,24.6984293 230.665962,25.4769947 C227.650255,29.2084117 227.536812,34.5824119 224.913431,38.6034173 C224.839712,38.7436983 224.728371,38.8604563 224.592007,38.9404791 C224.45521,38.9936521 224.30734,39.0116041 224.161867,38.9927 C221.759672,38.8538625 219.45431,37.9938648 217.544329,36.524078 C217.08449,36.2851283 216.880056,35.7348647 217.071647,35.2517882 C218.395155,29.1514435 221.949719,23.7537066 223.556835,17.7198248 C223.982248,16.13421 224.270584,14.5058689 224.89925,12.9724749 C225.532351,11.5130675 226.417268,10.177514 227.513178,9.02742707 C228.547497,7.84163033 229.855664,6.92878083 231.322989,6.36891109 C233.610767,5.59509305 236.158519,6.12679624 238.347034,7.14747648 C240.71044,8.23936697 242.279742,9.94841296 241.958319,12.6591498 C241.745612,14.4583954 240.59227,17.2545845 238.952066,18.0948655 Z" id="Shape" fill="#606161"></path><path d="M238.952066,18.0948655 C237.935801,18.617074 236.678469,18.4224326 235.643296,18.9066623 C234.03618,19.6662383 233.572952,21.6886094 232.594502,23.1792773 C232.041465,24.0148109 231.294628,24.6984293 230.665962,25.4769947 C227.650255,29.2084117 227.536812,34.5824119 224.913431,38.6034173 C224.839712,38.7436983 224.728371,38.8604563 224.592007,38.9404791 C224.45521,38.9936521 224.30734,39.0116041 224.161867,38.9927 C221.759672,38.8538625 219.45431,37.9938648 217.544329,36.524078 C217.08449,36.2851283 216.880056,35.7348647 217.071647,35.2517882 C218.395155,29.1514435 221.949719,23.7537066 223.556835,17.7198248 C223.982248,16.13421 224.270584,14.5058689 224.89925,12.9724749 C225.532351,11.5130675 226.417268,10.177514 227.513178,9.02742707 C228.547497,7.84163033 229.855664,6.92878083 231.322989,6.36891109 C233.610767,5.59509305 236.158519,6.12679624 238.347034,7.14747648 C240.71044,8.23936697 242.279742,9.94841296 241.958319,12.6591498 C241.745612,14.4583954 240.59227,17.2545845 238.952066,18.0948655 Z" id="Shape" fill="url(#linearGradient-10)"></path><path d="M252.365653,45.8593628 C253.143731,45.6536188 253.939243,45.5253095 254.741205,45.4762067 C256.145251,45.1943572 257.519315,44.7727251 258.843991,44.2172651 C259.410059,44.0182229 260.082568,43.8490371 260.556711,44.2172651 C260.901981,44.5212597 261.062581,44.9921079 260.977633,45.4513264 C260.893076,45.9026928 260.729116,46.3343921 260.493814,46.7251962 L259.042357,49.48193 C258.558538,50.3726436 258.074719,51.2981896 257.261903,51.8405795 C256.100737,52.5969396 254.610574,52.4128257 253.260719,52.6815326 C252.64829,52.865997 252.016271,52.9729426 251.378662,53 C249.627237,52.910431 248.741848,50.9349377 249.066007,49.3177202 C249.375651,47.8746646 251.073856,46.3171598 252.365653,45.8593628 Z" id="Shape" fill="url(#linearGradient-11)"></path><path d="M231.161898,119.525386 C230.838802,119.491542 230.512542,119.507179 230.194006,119.571775 C229.821546,119.726398 229.494995,119.976836 229.246384,120.298525 C228.136047,121.411641 227.162719,122.657785 226.347774,124.009591 C225.016616,126.611914 224.656604,129.616385 225.334274,132.467729 C225.352661,132.621355 225.414246,132.76632 225.511636,132.885224 C225.800484,133.163554 226.266694,132.885224 226.525136,132.586277 L234.344288,124.803347 L235.732783,123.422006 C235.878838,123.326328 235.975309,123.16936 235.995892,122.993905 C236.016474,122.818449 235.959022,122.642802 235.839201,122.514856 L234.881443,120.829414 C234.636538,120.257108 234.327031,119.715711 233.959158,119.216131 C233.553758,118.80379 233.330788,119.076966 232.834173,119.252211 C232.297766,119.446131 231.731031,119.538711 231.161898,119.525386 Z" id="Shape" fill="url(#linearGradient-12)"></path><path d="M226.155087,119 C224.57902,119.065787 223.020117,119.343857 221.523361,119.826185 C220.949643,119.984199 220.249986,120.300226 220.282637,120.878104 C220.315287,121.455982 220.954307,121.708804 221.159539,122.160271 C221.289234,122.611951 221.242749,123.094025 221.028937,123.514673 C220.249782,125.603134 219.907311,127.820672 220.021432,130.038375 C220.134103,132.267869 221.006709,134.39842 222.50288,136.097065 C222.893106,136.607535 223.487423,136.935308 224.140076,137 C224.93302,137 225.539389,136.30474 225.875224,135.609481 C226.8734,133.541761 226.439613,131.130926 226.444278,128.837472 C226.438184,126.56214 226.902873,124.308662 227.81094,122.209932 C228.053488,121.668172 229.107637,120.512415 228.991027,119.930023 C228.790459,119.054176 226.882729,119.022573 226.155087,119 Z" id="Shape" fill="#3F3D56"></path><rect id="Rectangle-path" fill="#FFFFFF" x="29" y="22" width="187" height="129"></rect><circle id="Oval" fill="url(#linearGradient-13)" cx="31" cy="6" r="2"></circle><circle id="Oval" fill="url(#linearGradient-14)" cx="39" cy="6" r="2"></circle><circle id="Oval" fill="url(#linearGradient-15)" cx="47" cy="6" r="2"></circle><rect id="Rectangle-path" fill="#A1E5E6" opacity="0.24" x="30" y="21" width="32" height="135"></rect><rect id="Rectangle-path" fill="#A1E5E6" opacity="0.24" x="164" y="21" width="45" height="135"></rect><rect id="Rectangle-path" fill="#A1E5E6" opacity="0.24" x="65" y="21" width="95" height="135"></rect><rect id="Rectangle-path" fill="#A1E5E6" opacity="0.24" x="70" y="42" width="92" height="57"></rect><rect id="Rectangle-path" fill="#A1E5E6" opacity="0.24" x="170" y="34" width="37" height="26"></rect><rect id="Rectangle-path" fill="#FFFFFF" x="32" y="22" width="10" height="12"></rect><rect id="Rectangle-path" fill="#FFFFFF" x="126" y="29" width="6" height="7"></rect><rect id="Rectangle-path" fill="#FFFFFF" x="73" y="29" width="21" height="7"></rect><rect id="Rectangle-path" fill="#FFFFFF" x="68" y="38" width="91" height="56"></rect><rect id="Rectangle-path" fill="#FFFFFF" x="99" y="29" width="21" height="7"></rect><rect id="Rectangle-path" fill="#FFFFFF" x="32" y="38" width="26" height="1"></rect><rect id="Rectangle-path" fill="#FFFFFF" x="32" y="43" width="26" height="1"></rect><rect id="Rectangle-path" fill="#FFFFFF" x="32" y="45" width="26" height="1"></rect><rect id="Rectangle-path" fill="#A1E5E6" opacity="0.24" x="70" y="50" width="84" height="43"></rect><rect id="Rectangle-path" fill="#FFFFFF" x="169" y="33" width="37" height="22"></rect><g id="Group" opacity="0.24" transform="translate(172.000000, 38.000000)" fill="#A1E5E6"><path d="M5.98928571,7.33736842 L3.11535714,7.33736842 L2.71607143,8.71578947 L0.134642857,8.71578947 L3.21285714,0.36 L5.97071429,0.36 L9.04892857,8.71578947 L6.39785714,8.71578947 L5.98928571,7.33736842 Z M5.46464286,5.52789474 L4.53607143,2.52473684 L3.64,5.52789474 L5.46464286,5.52789474 Z" id="Shape"></path><path d="M9.88928571,0.36 L13.65,0.36 C14.2618102,0.335285637 14.8720068,0.440118976 15.4421429,0.667894737 C15.8861468,0.860111151 16.2756928,1.16307122 16.575,1.54894737 C16.8778729,1.9466136 17.0989543,2.40256031 17.225,2.88947368 C17.360982,3.41818722 17.4281071,3.96287252 17.4246429,4.50947368 C17.4545672,5.2155239 17.3537593,5.92100115 17.1275,6.58894737 C16.9428251,7.05831754 16.6590787,7.48042345 16.2964286,7.82526316 C15.9753522,8.1393147 15.582912,8.36717568 15.1542857,8.48842105 C14.6647005,8.63071622 14.1589935,8.70715237 13.65,8.71578947 L9.88928571,8.71578947 L9.88928571,0.36 Z M12.4196429,2.25473684 L12.4196429,6.82578947 L13.0371429,6.82578947 C13.4235708,6.85184605 13.8107857,6.78870231 14.17,6.64105263 C14.4102349,6.50048612 14.5955509,6.27962871 14.6946429,6.01578947 C14.8457482,5.54887902 14.9103011,5.05734087 14.885,4.56631579 C14.885,3.68052632 14.7410714,3.07421053 14.4578571,2.74736842 C14.0808698,2.39431796 13.5742172,2.22201507 13.065,2.27368421 L12.4196429,2.25473684 Z" id="Shape"></path><path d="M18.3160714,5.94947368 L20.7210714,5.79789474 C20.7461997,6.12483021 20.85683,6.43890271 21.0414286,6.70736842 C21.3093236,7.05247811 21.7248766,7.24326237 22.1557143,7.21894737 C22.4561976,7.23980739 22.7536907,7.14706665 22.9914286,6.95842105 C23.1726994,6.81302524 23.2801368,6.59206087 23.2839286,6.35684211 C23.2819351,6.12971092 23.1795766,5.91562839 23.0053571,5.77421053 C22.6116594,5.52379731 22.169975,5.36228282 21.71,5.30052632 C20.8524954,5.1560525 20.0400118,4.8089074 19.3375,4.28684211 C18.8705784,3.8875449 18.6073904,3.29297439 18.6225,2.67157895 C18.6237639,2.2376643 18.7514333,1.81392732 18.9892857,1.45421053 C19.2588248,1.04796286 19.6423624,0.734261203 20.0896429,0.554210526 C20.7316677,0.309476817 21.4152168,0.198345998 22.1,0.227368421 C22.9389412,0.172374412 23.7744482,0.378871531 24.4957143,0.819473684 C25.0753353,1.27690734 25.4325806,1.96785894 25.4753571,2.71421053 L23.0889286,2.85631579 C23.0597094,2.54083082 22.9175565,2.24739699 22.6896429,2.03210526 C22.4468443,1.85046744 22.1499424,1.76009588 21.8492857,1.77631579 C21.6125024,1.75962871 21.3775017,1.82837044 21.1853571,1.97052632 C21.0409433,2.08284661 20.9580682,2.25899803 20.9625,2.44421053 C20.9695391,2.58491651 21.0376049,2.71512335 21.1482143,2.79947368 C21.4034987,2.96668363 21.6922172,3.07350318 21.9932143,3.11210526 C22.8122467,3.26227818 23.6114923,3.50865407 24.375,3.84631579 C24.8039113,4.05512953 25.1660976,4.38359 25.4196429,4.79368421 C25.6371429,5.16754555 25.7495829,5.59527275 25.7446429,6.03 C25.7480297,6.55765646 25.5959839,7.07418514 25.3082143,7.51263158 C25.0114957,7.97063885 24.5881139,8.3284009 24.0917857,8.54052632 C23.4648431,8.79518065 22.7929811,8.91453177 22.1185714,8.89105263 C20.7257143,8.89105263 19.7615476,8.61789474 19.2260714,8.07157895 C18.6760585,7.50329039 18.3518689,6.74728553 18.3160714,5.94947368 Z" id="Shape"></path></g><path d="M93.4933398,74.1935654 L87.3732139,74.1935654 L86.5219181,77 L81,77 L87.5618794,60 L93.4427222,60 L100,77 L94.3676435,77 L93.4933398,74.1935654 Z M92.3751514,70.5129219 L90.4470816,64.4069093 L88.5420199,70.5129219 L92.3751514,70.5129219 Z" id="Shape" fill="#FFFFFF"></path><path d="M104,60.0067468 L112.47507,60.0067468 C113.857094,59.9583582 115.23528,60.1706586 116.52519,60.6306407 C117.522785,61.0263585 118.398981,61.6430684 119.075987,62.4260187 C119.761449,63.2332163 120.258636,64.162296 120.536366,65.1549933 C120.843682,66.2315702 120.995897,67.3407753 120.989084,68.4540005 C121.054353,69.8911964 120.826484,71.3269198 120.31731,72.6866042 C119.901146,73.6417512 119.263094,74.5012379 118.448023,75.204622 C117.723977,75.8410038 116.841299,76.3034289 115.877755,76.5511555 C114.767901,76.8367441 113.622388,76.9876317 112.470202,77 L104,77 L104,60.0067468 Z M109.705217,63.8578327 L109.705217,73.1444256 L111.102313,73.1444256 C111.970501,73.1975161 112.840539,73.0702051 113.648242,72.7718847 C114.190528,72.4858643 114.60855,72.0353977 114.83115,71.4971663 C115.174339,70.5463499 115.319679,69.5443229 115.259528,68.5437694 C115.259528,66.7483914 114.934999,65.5125728 114.285941,64.8363137 C113.643374,64.1720239 112.587033,63.8398789 111.107181,63.8398789 L109.705217,63.8578327 Z" id="Shape" fill="#FFFFFF"></path><path d="M122,70.9445219 L127.511622,70.6234485 C127.570775,71.3044798 127.82132,71.9592196 128.238266,72.522368 C128.856416,73.2364966 129.808353,73.6294555 130.793879,73.5773232 C131.480846,73.6217708 132.161515,73.4308237 132.706882,73.0406721 C133.123767,72.7392778 133.370982,72.2788093 133.379151,71.7884861 C133.369667,71.3172948 133.136266,70.874076 132.741484,70.5775809 C132.311429,70.2244003 131.322797,69.8849799 129.775589,69.5684933 C127.241396,69.0364289 125.428904,68.3331254 124.338114,67.4585828 C123.269899,66.6272102 122.667703,65.3897941 122.701929,64.0964864 C122.704326,63.1944214 122.995054,62.3132891 123.537322,61.5645938 C124.157962,60.7216715 125.035833,60.0700095 126.058333,59.6931949 C127.528887,59.1803509 129.095786,58.9479098 130.665357,59.0097674 C133.064437,59.0097674 134.891758,59.422576 136.14732,60.2481931 C137.402883,61.0738103 138.150947,62.388682 138.391514,64.1928084 L132.95404,64.4909479 C132.920305,63.8356787 132.595535,63.2226534 132.056968,62.7976593 C131.5184,62.3726651 130.814159,62.1736784 130.111723,62.2480213 C129.558526,62.2021973 129.005983,62.342174 128.554628,62.6424828 C128.236877,62.8743744 128.054044,63.2306405 128.060313,63.6057028 C128.068391,63.9017604 128.223485,64.1777323 128.480481,64.353345 C129.068024,64.6997135 129.731927,64.9191666 130.423142,64.9954917 C132.294226,65.3083406 134.119224,65.8240633 135.860617,66.5320569 C136.837532,66.9525888 137.666784,67.6203054 138.253106,68.4584969 C138.754263,69.2370754 139.012662,70.1294586 138.999523,71.0362571 C139.009001,72.1336645 138.664719,73.2086476 138.010891,74.1231479 C137.331395,75.0752864 136.362916,75.8191087 135.227893,76.2605789 C133.792438,76.7913826 132.254264,77.0412335 130.709846,76.9944608 C127.519861,76.9944608 125.311916,76.4241734 124.086013,75.2835986 C122.845562,74.1204878 122.104024,72.5780296 122,70.9445219 Z" id="Shape" fill="#FFFFFF"></path><rect id="Rectangle-path" fill="#A1E5E6" opacity="0.24" x="3" y="76" width="54" height="52" rx="12.3"></rect><rect id="Rectangle-path" fill="#FFFFFF" x="0" y="73" width="54" height="52" rx="12.3"></rect><path d="M33.2004318,114.198289 L33.2004318,104.785192 C33.2004318,104.420567 33.2004318,104.420567 32.8679449,104.420567 L27.3504592,104.420567 C27.0179723,104.420567 27,104.420567 27,104.051143 L27,97.0848758 C27,96.7250479 27,96.7154525 27.3459661,96.7154525 L32.8634519,96.7154525 C33.2004318,96.7154525 33.2004318,96.7154525 33.2004318,96.3508269 C33.2004318,94.4893175 33.2004318,92.6326057 33.2004318,90.7758939 C33.18365,89.0402381 33.5532414,87.3251532 34.2787678,85.7718878 C35.3452839,83.5374047 37.2859024,81.9239392 39.5760933,81.3675947 C41.2025834,80.9166104 42.8515388,80.9837783 44.4960012,81.0413508 C45.4889689,81.0749347 46.4819366,81.1564957 47.4704112,81.2284613 C48.1084267,81.281236 47.991607,81.2764383 47.991607,81.8137813 C47.991607,83.8288173 47.991607,85.8454526 47.991607,87.8636871 C47.991607,88.2043241 47.991607,88.2235149 47.65912,88.2235149 C46.5178811,88.2235149 45.3766422,88.1995264 44.2354033,88.2235149 C43.6792568,88.230233 43.1252168,88.2977531 42.5819548,88.4250185 C41.6091431,88.6321001 40.8786688,89.4959521 40.7847282,90.5504018 C40.7224546,90.9758488 40.6894172,91.405591 40.6858807,91.8361867 C40.6858807,93.3522614 40.6858807,94.8683362 40.6858807,96.3844109 C40.6858807,96.6530824 40.7622629,96.7250479 41.0093815,96.7250479 C43.1256159,96.7250479 45.2463433,96.7250479 47.3625776,96.7250479 C47.7579675,96.7250479 47.7579675,96.7250479 47.7040507,97.1616391 L46.8818195,103.988773 C46.8323958,104.420567 46.8323958,104.430162 46.4325129,104.430162 L41.0857637,104.430162 C40.7083461,104.430162 40.7083461,104.430162 40.7083461,104.828371 L40.7083461,123.47705 C40.7083461,123.573004 40.7083461,123.668958 40.7083461,123.764912 C40.7083461,123.952023 40.6409501,124 40.4747066,124 C38.1233351,124 35.774959,124 33.4295782,124 C33.1734735,124 33.2049249,123.836878 33.2049249,123.673756 L33.2049249,114.198289 L33.2004318,114.198289 Z" id="Shape" fill="#A1E5E6" opacity="0.24"></path></g></g></g></svg> 